<?xml version="1.0" encoding="UTF-8"?>
<svg version="1.1" xmlns="http://www.w3.org/2000/svg" width="192" height="192">
<path d="M0 0 C63.36 0 126.72 0 192 0 C192 63.36 192 126.72 192 192 C128.64 192 65.28 192 0 192 C0 128.64 0 65.28 0 0 Z " fill="#D7CDF2" transform="translate(0,0)"/>
<path d="M0 0 C11.94945492 -0.39178541 21.54561005 2.54810753 30.82421875 10.1953125 C37.42769141 16.42278672 41.97785728 23.2298073 43.82421875 32.1953125 C43.86310224 34.52832183 43.86908225 36.86241051 43.82421875 39.1953125 C44.40429688 39.23269531 44.984375 39.27007812 45.58203125 39.30859375 C54.60336349 40.06781478 60.68261754 43.57448984 66.82421875 50.1953125 C72.65946776 57.68974075 72.83147872 66.15942728 72.08105469 75.27050781 C71.5429078 79.30354016 70.25991594 82.92870858 67.82421875 86.1953125 C66.83421875 86.8553125 65.84421875 87.5153125 64.82421875 88.1953125 C64.98921875 87.4321875 65.15421875 86.6690625 65.32421875 85.8828125 C65.91567271 83.15935014 65.91567271 83.15935014 65.82421875 80.1953125 C65.39109375 81.2059375 64.95796875 82.2165625 64.51171875 83.2578125 C61.4716498 88.67706584 56.04648499 91.17357372 50.82421875 94.1953125 C49.83421875 94.8553125 48.84421875 95.5153125 47.82421875 96.1953125 C44.86413574 96.42909241 44.86413574 96.42909241 41.19726562 96.40649414 C40.52865005 96.4051799 39.86003448 96.40386566 39.17115784 96.4025116 C36.96161739 96.39602193 34.75242341 96.37559006 32.54296875 96.35546875 C31.0074501 96.34919791 29.47192693 96.34395796 27.93640137 96.33970642 C23.89329624 96.32640016 19.85034201 96.30196649 15.80731201 96.27435303 C9.33578562 96.23124451 2.86421865 96.20152074 -3.60740662 96.1783123 C-5.86922806 96.16808318 -8.13092659 96.15103289 -10.3927002 96.13331604 C-11.77807505 96.12648806 -13.16345101 96.11987933 -14.54882812 96.11352539 C-15.75889526 96.10527237 -16.9689624 96.09701935 -18.21569824 96.08851624 C-21.23415011 96.05820376 -21.23415011 96.05820376 -24.17578125 97.1953125 C-24.17578125 96.5353125 -24.17578125 95.8753125 -24.17578125 95.1953125 C-25.82578125 95.8553125 -27.47578125 96.5153125 -29.17578125 97.1953125 C8.93921875 97.6903125 8.93921875 97.6903125 47.82421875 98.1953125 C47.82421875 98.5253125 47.82421875 98.8553125 47.82421875 99.1953125 C35.82551531 99.32762807 23.82679345 99.45812298 11.8280468 99.58646393 C6.25303065 99.64614897 0.67802194 99.70639841 -4.89697266 99.76806641 C-16.50724643 99.8961355 -28.11750489 100.01593767 -39.72806168 100.11550903 C-44.96907588 100.16154981 -50.20953003 100.22083073 -55.45014381 100.30020905 C-57.59067415 100.33088168 -59.73114981 100.35492886 -61.87179565 100.37585449 C-64.33379433 100.40023284 -66.7957262 100.43533649 -69.25735474 100.48449707 C-80.33206262 100.55773211 -88.07245833 97.84393995 -96.17578125 90.1953125 C-101.7691744 83.55412118 -101.88962844 76.56491218 -101.17578125 68.1953125 C-98.61659794 62.43715006 -92.99418279 56.84631659 -87.125 54.30859375 C-82.79197627 53.12227075 -78.61924107 53.01016834 -74.17578125 53.1953125 C-73.99015625 52.3496875 -73.80453125 51.5040625 -73.61328125 50.6328125 C-71.01606789 44.4220849 -65.80700662 39.65703988 -59.6875 36.84375 C-52.57994816 35.00882993 -44.25903535 35.52946115 -37.17578125 37.1953125 C-37.08296875 35.2771875 -37.08296875 35.2771875 -36.98828125 33.3203125 C-36.10831564 25.45019757 -32.0462963 17.55111414 -26.17578125 12.1953125 C-17.58506498 5.43434094 -10.97441241 0.67493311 0 0 Z " fill="#DCE8FD" transform="translate(118.17578125,43.8046875)"/>
<path d="M0 0 C38.28 0 76.56 0 116 0 C116.16065467 30.20754126 116.16065467 30.20754126 116.20101547 45.13457775 C116.22317625 53.20578109 116.2513054 61.27681898 116.30175781 69.34790039 C116.3416857 75.73838813 116.367447 82.12875099 116.37635398 88.51936001 C116.38155876 91.90172632 116.39375034 95.28373543 116.42292023 98.66598701 C116.45195813 102.44624127 116.45595564 106.22575566 116.45410156 110.00610352 C116.46848267 111.12172668 116.48286377 112.23734985 116.49768066 113.38677979 C116.46353522 119.82103905 115.77582218 123.73277891 112 129 C111 126 111 126 111.91015625 123.82421875 C114.51229745 117.08103564 114.0472317 107.85283847 112.16015625 100.91015625 C108.83682056 93.64805234 103.32126423 88.10065817 95.875 85.125 C92.64566295 84.03007456 89.36435397 83.52419113 86 83 C85.85304688 82.10539062 85.70609375 81.21078125 85.5546875 80.2890625 C83.16533463 67.40852809 78.65767495 58.83012853 68 51 C65.41307015 49.39035476 62.83048097 48.12039872 60 47 C58.453125 46.38125 58.453125 46.38125 56.875 45.75 C48.88623385 44.2037872 35.76065376 42.86799095 28.625 47.5625 C28.08875 48.036875 27.5525 48.51125 27 49 C26.34 49 25.68 49 25 49 C24.608125 48.113125 24.21625 47.22625 23.8125 46.3125 C21.92429787 42.86164784 19.79911414 40.72734198 17 38 C16.649375 37.2575 16.29875 36.515 15.9375 35.75 C15.14646408 33.79686141 15.14646408 33.79686141 13 33.3125 C12.34 33.209375 11.68 33.10625 11 33 C10.34 32.67 9.68 32.34 9 32 C9 31.34 9 30.68 9 30 C7.68 29.67 6.36 29.34 5 29 C5.33 27.35 5.66 25.7 6 24 C5.34 24 4.68 24 4 24 C3.67 25.32 3.34 26.64 3 28 C1.68 27.34 0.36 26.68 -1 26 C-0.360625 24.88625 0.27875 23.7725 0.9375 22.625 C3.02016369 18.49633923 3.55531154 14.85512646 3.8515625 10.27734375 C4.01367155 7.7902496 4.43394436 5.42595274 5 3 C3.35 2.67 1.7 2.34 0 2 C0 1.34 0 0.68 0 0 Z " fill="#A5B0F8" transform="translate(76,0)"/>
<path d="M0 0 C0.29802257 5.76176967 -0.13274491 8.86283462 -3 14 C-3 14.99 -3 15.98 -3 17 C-2.34 17.33 -1.68 17.66 -1 18 C-0.896875 17.360625 -0.79375 16.72125 -0.6875 16.0625 C-0.3471875 15.0415625 -0.3471875 15.0415625 0 14 C0.99 13.67 1.98 13.34 3 13 C2.67 14.98 2.34 16.96 2 19 C2.99 19.33 3.98 19.66 5 20 C5 20.66 5 21.32 5 22 C5.9075 22.226875 6.815 22.45375 7.75 22.6875 C11.53001048 24.2140427 12.66297438 25.72816413 15 29 C16.051875 30.051875 16.051875 30.051875 17.125 31.125 C19 33 19 33 21 36 C20.8828125 38.4921875 20.8828125 38.4921875 20 41 C18.1796875 42.6328125 18.1796875 42.6328125 15.875 44.125 C6.6676514 50.91322038 3.01347809 60.01216243 1 71 C0.43603516 70.97905273 -0.12792969 70.95810547 -0.70898438 70.93652344 C-3.30580249 70.85251499 -5.90233362 70.80107771 -8.5 70.75 C-9.386875 70.71648437 -10.27375 70.68296875 -11.1875 70.6484375 C-18.53759757 70.54034783 -23.71246425 72.06756393 -29.2421875 77 C-30.05042969 77.99 -30.05042969 77.99 -30.875 79 C-31.70644531 79.99 -31.70644531 79.99 -32.5546875 81 C-34.07534248 82.93440135 -34.07534248 82.93440135 -34.87109375 85.171875 C-36 87 -36 87 -38.35546875 87.890625 C-45.70923248 88.82379226 -45.70923248 88.82379226 -49.10546875 86.65625 C-57.82162452 77.26666056 -60.30667306 66.14213914 -60.1640625 53.7890625 C-59.94067136 48.62979084 -59.33874727 43.67749453 -57 39 C-56.34 39 -55.68 39 -55 39 C-54.773125 38.34 -54.54625 37.68 -54.3125 37 C-51.68878815 31.00294434 -48.65623682 25.5723601 -43 22 C-42.01 22 -41.02 22 -40 22 C-40 21.34 -40 20.68 -40 20 C-29.32318059 15.87878605 -19.33153971 15.23931446 -8 15 C-8.21011719 13.7625 -8.42023438 12.525 -8.63671875 11.25 C-8.96897741 8.5730457 -9.09234012 7.24961349 -8.14453125 4.6875 C-7.70496094 4.130625 -7.26539063 3.57375 -6.8125 3 C-6.38582031 2.4225 -5.95914063 1.845 -5.51953125 1.25 C-4 0 -4 0 0 0 Z " fill="#FDDA8A" transform="translate(80,10)"/>
<path d="M0 0 C0.29802257 5.76176967 -0.13274491 8.86283462 -3 14 C-3 14.99 -3 15.98 -3 17 C-2.34 17.33 -1.68 17.66 -1 18 C-0.896875 17.360625 -0.79375 16.72125 -0.6875 16.0625 C-0.3471875 15.0415625 -0.3471875 15.0415625 0 14 C0.99 13.67 1.98 13.34 3 13 C2.67 14.98 2.34 16.96 2 19 C2.99 19.33 3.98 19.66 5 20 C5 20.66 5 21.32 5 22 C5.9075 22.226875 6.815 22.45375 7.75 22.6875 C11.53001048 24.2140427 12.66297438 25.72816413 15 29 C16.31494512 30.35147138 17.64264858 31.69112542 19 33 C17.3743193 32.69106068 15.74947252 32.3777305 14.125 32.0625 C12.76761719 31.80146484 12.76761719 31.80146484 11.3828125 31.53515625 C9 31 9 31 7 30 C7 29.34 7 28.68 7 28 C6.360625 27.9175 5.72125 27.835 5.0625 27.75 C2.31334453 27.07673743 0.22248353 26.21047657 -2.3125 25 C-11.78513967 20.70844166 -23.02931485 21.2373829 -32.74609375 24.80078125 C-40.70287125 29.03428332 -48.93628643 37.45613735 -53.3125 45.375 C-54.18733358 48.71527367 -54.79082913 52.09119085 -55.42578125 55.484375 C-56.20762835 58.9096099 -57.48691308 61.83627281 -59 65 C-59.33 65 -59.66 65 -60 65 C-60.45283019 45.90566038 -60.45283019 45.90566038 -57 39 C-56.34 39 -55.68 39 -55 39 C-54.773125 38.34 -54.54625 37.68 -54.3125 37 C-51.68878815 31.00294434 -48.65623682 25.5723601 -43 22 C-42.01 22 -41.02 22 -40 22 C-40 21.34 -40 20.68 -40 20 C-29.32318059 15.87878605 -19.33153971 15.23931446 -8 15 C-8.21011719 13.7625 -8.42023438 12.525 -8.63671875 11.25 C-8.96897741 8.5730457 -9.09234012 7.24961349 -8.14453125 4.6875 C-7.70496094 4.130625 -7.26539063 3.57375 -6.8125 3 C-6.38582031 2.4225 -5.95914063 1.845 -5.51953125 1.25 C-4 0 -4 0 0 0 Z " fill="#FDF7E2" transform="translate(80,10)"/>
<path d="M0 0 C0.33 0 0.66 0 1 0 C1.05447047 1.41623216 1.09300508 2.83308191 1.125 4.25 C1.14820313 5.03890625 1.17140625 5.8278125 1.1953125 6.640625 C0.98123653 9.22666272 0.19312703 10.72648236 -1 13 C-1 13.99 -1 14.98 -1 16 C-0.01 15.34 0.98 14.68 2 14 C-0.54304116 19.64431086 -4.88235948 24.34957321 -10.625 26.8125 C-11.73875 27.204375 -12.8525 27.59625 -14 28 C-14.70114426 28.35170258 -15.40228851 28.70340515 -16.12467957 29.06576538 C-20.23776806 30.40216936 -24.08459109 30.21602479 -28.38012695 30.13525391 C-29.78573631 30.12106163 -29.78573631 30.12106163 -31.21974182 30.10658264 C-34.3094563 30.07297131 -37.39876399 30.02483751 -40.48828125 29.9765625 C-42.63346806 29.95038855 -44.77866613 29.92512209 -46.9238739 29.90072632 C-52.56448625 29.83414237 -58.20486148 29.75523476 -63.84527588 29.67376709 C-69.60313835 29.59278179 -75.36113974 29.52344225 -81.11914062 29.453125 C-92.41292693 29.31348634 -103.70649698 29.1608292 -115 29 C-115 28.67 -115 28.34 -115 28 C-111.04 27.67 -107.08 27.34 -103 27 C-103.99 26.34 -104.98 25.68 -106 25 C-105.16855469 25.01160156 -104.33710937 25.02320313 -103.48046875 25.03515625 C-101.85044922 25.04869141 -101.85044922 25.04869141 -100.1875 25.0625 C-99.10855469 25.07410156 -98.02960938 25.08570313 -96.91796875 25.09765625 C-93.93487831 25.13624766 -93.93487831 25.13624766 -91 24 C-91 24.66 -91 25.32 -91 26 C-90.01 25.34 -89.02 24.68 -88 24 C-85.0221405 23.7931366 -85.0221405 23.7931366 -81.32885742 23.85229492 C-80.31853203 23.86390404 -80.31853203 23.86390404 -79.28779602 23.87574768 C-77.82596914 23.89339361 -76.3641903 23.91544164 -74.9024868 23.9413662 C-72.5860398 23.98079949 -70.26989435 24.00516363 -67.95320129 24.02497864 C-61.36680299 24.08300228 -54.78085513 24.16004208 -48.19506836 24.26733398 C-44.16512997 24.33191831 -40.13555984 24.37188023 -36.10518837 24.39650917 C-34.57214192 24.41073729 -33.03915177 24.43430431 -31.50639915 24.46751976 C-29.35691366 24.5134418 -27.2092415 24.52802626 -25.05932617 24.53588867 C-23.83815598 24.55302414 -22.61698578 24.57015961 -21.35881042 24.58781433 C-16.86281359 23.80098476 -15.29410665 22.11209574 -12 19 C-7.44827586 16 -7.44827586 16 -5 16 C-2.80147802 10.81776962 -1.3121056 5.46710666 0 0 Z " fill="#B3CFFD" transform="translate(185,115)"/>
<path d="M0 0 C1.9375 0.75 1.9375 0.75 4 2 C4.625 3.6875 4.625 3.6875 5 6 C5.37125 7.051875 5.7425 8.10375 6.125 9.1875 C7.16071398 13.70025377 6.95830582 17.48918675 6 22 C5 23 5 23 1.6875 23.3125 C-2 23 -2 23 -4.4375 21.4375 C-6.59761052 18.06772759 -6.4835611 15.93756894 -6 12 C-4.625 9.0625 -4.625 9.0625 -3 7 C-2.34 7 -1.68 7 -1 7 C-1.33 6.01 -1.66 5.02 -2 4 C-2.99 4.495 -2.99 4.495 -4 5 C-3 2 -3 2 0 0 Z " fill="#BACCFC" transform="translate(123,149)"/>
<path d="M0 0 C4.5898398 -0.0248244 9.17964001 -0.04291873 13.76953125 -0.05493164 C15.32910849 -0.05994272 16.88868108 -0.06675337 18.44824219 -0.07543945 C20.69727736 -0.08764686 22.9462501 -0.09326068 25.1953125 -0.09765625 C26.23161301 -0.10539818 26.23161301 -0.10539818 27.28884888 -0.11329651 C30.16076361 -0.11362506 32.87850605 -0.02217994 35.70739746 0.4942627 C39.61225518 1.0940412 43.45173347 1.17563401 47.39208984 1.20532227 C48.21226593 1.21522186 49.03244202 1.22512146 49.87747192 1.23532104 C52.5719317 1.2667542 55.26640907 1.29162111 57.9609375 1.31640625 C59.83566734 1.3369915 61.7103927 1.35798838 63.58511353 1.37937927 C68.50710411 1.43443769 73.42913545 1.48391822 78.35119629 1.53222656 C83.37869878 1.58256045 88.40614247 1.63818433 93.43359375 1.69335938 C103.2890122 1.80074229 113.14448182 1.90223098 123 2 C123 2.33 123 2.66 123 3 C110.91492661 3.02339324 98.82985879 3.04105026 86.74476719 3.05181217 C81.13037364 3.05698294 75.51599583 3.06397204 69.90161133 3.07543945 C26.84420606 3.16077231 26.84420606 3.16077231 11.52734375 2.62109375 C10.54165909 2.59048355 9.55597443 2.55987335 8.54042053 2.52833557 C2.24850336 2.24850336 2.24850336 2.24850336 0 0 Z " fill="#C6E0FE" transform="translate(43,140)"/>
<path d="M0 0 C0.33 1.32 0.66 2.64 1 4 C0.34 4 -0.32 4 -1 4 C-2.99584278 8.11642574 -3.42196743 11.44275172 -3 16 C-2.08333333 18.08333333 -2.08333333 18.08333333 0 19 C3.62535976 19.2503577 3.62535976 19.2503577 7 19 C8.27766314 11.79862595 7.52686664 6.83824362 5 0 C9.19090396 3.96436861 12.52913086 7.17478515 13.5 13 C13 16 13 16 11.125 18.875 C6.76447989 21.84015367 3.1290098 21.91682131 -2 21 C-4.625 19.4375 -4.625 19.4375 -6 17 C-6.81996774 10.67453458 -4.91620513 6.69688129 -1.3125 1.625 C-0.879375 1.08875 -0.44625 0.5525 0 0 Z " fill="#ECF1FD" transform="translate(121,152)"/>
<path d="M0 0 C2.78225786 0.28875325 5.54119432 0.62810288 8.3125 1 C9.09818359 1.07605469 9.88386719 1.15210938 10.69335938 1.23046875 C13.04479928 1.57067708 14.87497122 1.92888853 17 3 C19.87278107 7.25769538 20.37878661 11.94951182 20 17 C19.50371094 16.61328125 19.00742187 16.2265625 18.49609375 15.828125 C15.11794574 13.2384252 11.84676311 10.83779207 8.0625 8.875 C5 7 5 7 4.3125 4.875 C4.209375 4.25625 4.10625 3.6375 4 3 C2.0162233 1.71563266 2.0162233 1.71563266 0 1 C0 0.67 0 0.34 0 0 Z " fill="#BBB9F5" transform="translate(31,141)"/>
<path d="M0 0 C0.29802257 5.76176967 -0.13274491 8.86283462 -3 14 C-3 14.99 -3 15.98 -3 17 C-6.93670488 18.31223496 -9.12488144 17.24296256 -13 16 C-11.68 15.67 -10.36 15.34 -9 15 C-8.93121581 12.11664651 -8.93121581 12.11664651 -9.3125 9.75 C-8.66018419 4.00962085 -5.81744799 0 0 0 Z " fill="#FDF1BE" transform="translate(80,10)"/>
<path d="M0 0 C1.11375 0.3403125 1.11375 0.3403125 2.25 0.6875 C2.67154726 4.90297257 2.67275746 7.70179352 0.0625 11.0625 C-2.74189138 13.67993195 -3.95117395 14.6875 -7.75 14.6875 C-8.41 14.0275 -9.07 13.3675 -9.75 12.6875 C-9.49739753 8.89846292 -7.47150557 7.14563407 -4.75 4.6875 C-5.41 4.0275 -6.07 3.3675 -6.75 2.6875 C-4.29511132 0.41445492 -3.41240272 -0.38777304 0 0 Z " fill="#FCEDB3" transform="translate(104.75,23.3125)"/>
<path d="M0 0 C2.78583845 1.13010428 3.45135146 2.47775169 4.8828125 5.08984375 C5.32238281 5.858125 5.76195312 6.62640625 6.21484375 7.41796875 C7.23575732 10.30822636 6.91014025 11.93393669 6.0703125 14.83984375 C5.0803125 15.16984375 4.0903125 15.49984375 3.0703125 15.83984375 C-0.7962159 12.61773675 -1.81027768 9.69061963 -2.9296875 4.83984375 C-3.9196875 5.49984375 -4.9096875 6.15984375 -5.9296875 6.83984375 C-5.52285255 4.48020102 -5.03154411 2.98050287 -3.6171875 1.02734375 C-1.9296875 -0.16015625 -1.9296875 -0.16015625 0 0 Z " fill="#FDF2AE" transform="translate(40.9296875,11.16015625)"/>
<path d="M0 0 C0.495 0.99 0.495 0.99 1 2 C-0.72669922 1.75830078 -0.72669922 1.75830078 -2.48828125 1.51171875 C-6.73453291 0.98432104 -10.91140351 0.80851807 -15.1875 0.8125 C-15.91638428 0.81185547 -16.64526855 0.81121094 -17.39624023 0.81054688 C-24.06536887 0.87461011 -30.44878331 1.72393692 -37 3 C-28.7853051 -6.47849412 -10.68910927 -4.68858314 0 0 Z " fill="#FDF9EE" transform="translate(80,29)"/>
<path d="M0 0 C1.4540625 0.0309375 1.4540625 0.0309375 2.9375 0.0625 C3.185 0.68125 3.4325 1.3 3.6875 1.9375 C5.16520762 4.44960296 6.37705177 4.82357344 8.9375 6.0625 C9.2675 7.0525 9.5975 8.0425 9.9375 9.0625 C8.9475 10.5475 8.9475 10.5475 7.9375 12.0625 C3.5269051 11.55843201 1.07656582 10.20156582 -2.0625 7.0625 C-3.375 3.8125 -3.375 3.8125 -4.0625 1.0625 C-3.0625 0.0625 -3.0625 0.0625 0 0 Z " fill="#FDF1B1" transform="translate(16.0625,31.9375)"/>
<path d="M0 0 C0.33 0 0.66 0 1 0 C1.03738281 0.61488281 1.07476562 1.22976562 1.11328125 1.86328125 C1.17902344 2.67152344 1.24476562 3.47976562 1.3125 4.3125 C1.37050781 5.11300781 1.42851563 5.91351563 1.48828125 6.73828125 C2.10522538 9.46508012 2.71452986 10.40219344 5 12 C8.37362599 12.62516275 11.61243947 12.5117497 15 12 C17.87149318 9.91816745 19.02784647 7.95823029 21 5 C21.75 7.1875 21.75 7.1875 22 10 C20.1875 12.8125 20.1875 12.8125 18 15 C17.34 15 16.68 15 16 15 C16 15.66 16 16.32 16 17 C14.3973218 17.10824843 12.79254252 17.18570645 11.1875 17.25 C10.29417969 17.29640625 9.40085937 17.3428125 8.48046875 17.390625 C6 17 6 17 4.42578125 15.109375 C3.95527344 14.41328125 3.48476562 13.7171875 3 13 C0.91665365 11.7483533 0.91665365 11.7483533 -1 11 C-1.0270043 9.54176788 -1.04639787 8.08339325 -1.0625 6.625 C-1.07410156 5.81289062 -1.08570312 5.00078125 -1.09765625 4.1640625 C-1 2 -1 2 0 0 Z " fill="#C0BAF4" transform="translate(114,160)"/>
<path d="M0 0 C1.16015625 -0.03867187 1.16015625 -0.03867187 2.34375 -0.078125 C5.01920838 0.32900997 5.90691895 1.09648652 7.5 3.25 C7.1875 5.4375 7.1875 5.4375 6.5 7.25 C0.66605611 8.35643764 -2.26579213 8.52137992 -7.5 5.25 C-7.5 3.93 -7.5 2.61 -7.5 1.25 C-4.73952457 0.32984152 -2.86637731 0.05732755 0 0 Z " fill="#FDF2B0" transform="translate(9.5,61.75)"/>
<path d="M0 0 C1.6875 0.6875 1.6875 0.6875 2.5 2.375 C2.6875 4.6875 2.6875 4.6875 0.625 7.375 C-2.5561264 9.879291 -4.31288966 10.50973954 -8.3125 10.6875 C-8.9725 10.3575 -9.6325 10.0275 -10.3125 9.6875 C-9.9825 8.0375 -9.6525 6.3875 -9.3125 4.6875 C-8.6525 4.6875 -7.9925 4.6875 -7.3125 4.6875 C-7.3125 4.0275 -7.3125 3.3675 -7.3125 2.6875 C-3.15982824 -0.42700382 -3.15982824 -0.42700382 0 0 Z " fill="#FCEFB4" transform="translate(20.3125,88.3125)"/>
<path d="M0 0 C10.16508109 -0.57538195 21.46723339 2.10739617 29.4375 8.6875 C30.283125 9.450625 31.12875 10.21375 32 11 C27.91583429 11 23.69420747 10.84710374 20 9 C20 8.34 20 7.68 20 7 C19.360625 6.9175 18.72125 6.835 18.0625 6.75 C15.29901944 6.07322925 13.12573504 5.19502174 10.5625 4 C7.0405926 2.37450427 3.89234292 1.39921466 0 1 C0 0.67 0 0.34 0 0 Z " fill="#FCEAB4" transform="translate(67,31)"/>
<path d="M0 0 C1.24546405 2.49092811 0.7767578 3.41080733 0 6 C0.99 6.33 1.98 6.66 3 7 C3 7.66 3 8.32 3 9 C4.98 9.66 6.96 10.32 9 11 C9 11.66 9 12.32 9 13 C5.61510494 12.38073856 2.45498876 11.50264988 -0.8125 10.4375 C-11.1173131 7.58278826 -22.50616029 8.58736773 -33 10 C-32.67 9.34 -32.34 8.68 -32 8 C-25.75992843 6.62389545 -19.42255579 6.88617739 -13.0625 6.9375 C-11.46438477 6.94426758 -11.46438477 6.94426758 -9.83398438 6.95117188 C-7.22259709 6.96288213 -4.61132876 6.97928276 -2 7 C-2.66 6.34 -3.32 5.68 -4 5 C-2.25 1.125 -2.25 1.125 0 0 Z " fill="#FDF8CA" transform="translate(82,23)"/>
<path d="M0 0 C0.33 0 0.66 0 1 0 C1.05447047 1.41623216 1.09300508 2.83308191 1.125 4.25 C1.14820313 5.03890625 1.17140625 5.8278125 1.1953125 6.640625 C0.98123653 9.22666272 0.19312703 10.72648236 -1 13 C-1 13.99 -1 14.98 -1 16 C-0.01 15.34 0.98 14.68 2 14 C0.4323428 17.84788585 -1.79329096 20.37632897 -5 23 C-8.3125 23.3125 -8.3125 23.3125 -11 23 C-10.61328125 22.443125 -10.2265625 21.88625 -9.828125 21.3125 C-3.03296633 11.43342367 -3.03296633 11.43342367 0 0 Z " fill="#B5CEFD" transform="translate(185,115)"/>
<path d="M0 0 C0.66 0.33 1.32 0.66 2 1 C1.31292969 1.64066406 0.62585938 2.28132813 -0.08203125 2.94140625 C-7.79262449 10.34313452 -10.58061957 15.13326441 -12.4609375 25.5546875 C-13.21180871 28.96081342 -14.49813923 31.85974567 -16 35 C-16.33 35 -16.66 35 -17 35 C-16.47462276 29.9697924 -15.89405214 24.98114761 -15 20 C-14.34 20 -13.68 20 -13 20 C-12.896875 19.484375 -12.79375 18.96875 -12.6875 18.4375 C-10.34858508 10.14498348 -6.29519864 5.82008931 0 0 Z " fill="#FDF5BD" transform="translate(37,40)"/>
<path d="M0 0 C0.33 0.66 0.66 1.32 1 2 C0.07421875 4.06640625 0.07421875 4.06640625 -1.3125 6.5625 C-3.83008404 11.36688955 -5.05502448 15.67377435 -6 21 C-8.31 20.67 -10.62 20.34 -13 20 C-11.66222693 17.13424917 -10.13521297 14.73731682 -8.1875 12.25 C-5.18235643 8.32190079 -2.54640153 4.23649104 0 0 Z " fill="#FBA560" transform="translate(87,60)"/>
<path d="M0 0 C1.03253906 0.17789063 1.03253906 0.17789063 2.0859375 0.359375 C4.77582233 0.79223003 7.40710798 0.7554473 10.125 0.6875 C9.135 2.1725 9.135 2.1725 8.125 3.6875 C5.9609375 3.98046875 5.9609375 3.98046875 3.5 3.875 C2.68273437 3.84792969 1.86546875 3.82085937 1.0234375 3.79296875 C0.08371094 3.74076172 0.08371094 3.74076172 -0.875 3.6875 C-0.875 3.0275 -0.875 2.3675 -0.875 1.6875 C-1.865 2.6775 -2.855 3.6675 -3.875 4.6875 C-3.194375 5.615625 -2.51375 6.54375 -1.8125 7.5 C-1.173125 8.551875 -0.53375 9.60375 0.125 10.6875 C-0.205 11.6775 -0.535 12.6675 -0.875 13.6875 C-3.185 10.0575 -5.495 6.4275 -7.875 2.6875 C-3.875 -0.3125 -3.875 -0.3125 0 0 Z " fill="#8E9FFA" transform="translate(134.875,149.3125)"/>
<path d="M0 0 C0 4.24645065 -1.81750806 6.38524772 -4 10 C-7.3 10 -10.6 10 -14 10 C-11.77774995 5.5554999 -11.3918956 5.39428947 -7 3.875 C-3.12990776 2.54797487 -3.12990776 2.54797487 0 0 Z " fill="#FC9857" transform="translate(48,87)"/>
<path d="M0 0 C0.33 2.31 0.66 4.62 1 7 C0.67 6.34 0.34 5.68 0 5 C-5.01113235 6.4317521 -6.94469549 8.98445693 -10 13 C-10.66 12.67 -11.32 12.34 -12 12 C-9.76393384 6.7825123 -6.29792631 0 0 0 Z " fill="#F2CED0" transform="translate(80,5)"/>
<path d="M0 0 C0.33 0 0.66 0 1 0 C1.16533484 4.29870596 1.21065389 7.26952156 -1 11 C-1 11.66 -1 12.32 -1 13 C2.3 13 5.6 13 9 13 C8.67 13.99 8.34 14.98 8 16 C1.75 16.48076923 1.75 16.48076923 -1.4375 14.4375 C-3.59761052 11.06772759 -3.4835611 8.93756894 -3 5 C-1.5625 2.0625 -1.5625 2.0625 0 0 Z " fill="#CFDDFC" transform="translate(120,156)"/>
<path d="M0 0 C-0.556875 0.3403125 -1.11375 0.680625 -1.6875 1.03125 C-11.27794492 7.12247853 -17.56486514 12.97140912 -21 24 C-22.61247187 19.48717289 -21.04062554 16.49670504 -19.234375 12.265625 C-17.62617955 9.31387387 -16.0379794 8.37432401 -13 7 C-8.90857216 4.02873188 -8.90857216 4.02873188 -6 0 C-2.49056604 -1.24528302 -2.49056604 -1.24528302 0 0 Z " fill="#FDFAD2" transform="translate(45,36)"/>
<path d="M0 0 C-0.165 0.763125 -0.33 1.52625 -0.5 2.3125 C-1.09145396 5.03596236 -1.09145396 5.03596236 -1 8 C-4.93670488 9.31223496 -7.12488144 8.24296256 -11 7 C-9.68 6.67 -8.36 6.34 -7 6 C-6.8453125 5.071875 -6.8453125 5.071875 -6.6875 4.125 C-5.52284543 0.52515862 -3.5849033 0 0 0 Z " fill="#FDF2AB" transform="translate(78,19)"/>
<path d="M0 0 C0.33 0 0.66 0 1 0 C1.10887507 2.68860931 1.18770594 5.37273158 1.25 8.0625 C1.28351563 8.81466797 1.31703125 9.56683594 1.3515625 10.34179688 C1.45065774 16.06454718 0.20081225 19.25548893 -3 24 C-4 21 -4 21 -3.09765625 18.796875 C-1.72394479 15.29659954 -1.58404669 11.96013327 -1.4375 8.25 C-1.12204433 1.12204433 -1.12204433 1.12204433 0 0 Z " fill="#9AADFC" transform="translate(191,105)"/>
<path d="M0 0 C1.24546405 2.49092811 0.7767578 3.41080733 0 6 C0.99 6.33 1.98 6.66 3 7 C3 7.66 3 8.32 3 9 C4.98 9.66 6.96 10.32 9 11 C9 11.66 9 12.32 9 13 C4.87248551 12.39301257 1.6678852 10.96189209 -2 9 C-2 8.34 -2 7.68 -2 7 C-2.66 6.34 -3.32 5.68 -4 5 C-2.25 1.125 -2.25 1.125 0 0 Z " fill="#F7DED3" transform="translate(82,23)"/>
<path d="M0 0 C2.77824683 4.16737025 2.36772266 7.60235061 2.375 12.5 C2.39949219 13.36753906 2.42398438 14.23507813 2.44921875 15.12890625 C2.47878139 21.50458142 2.47878139 21.50458142 -0.0234375 24.09375 C-0.67570313 24.3928125 -1.32796875 24.691875 -2 25 C-1.47731534 22.23723823 -0.89130413 19.6739124 0 17 C0.07973476 15.66474283 0.10771338 14.32587917 0.09765625 12.98828125 C0.09443359 12.23095703 0.09121094 11.47363281 0.08789062 10.69335938 C0.07532227 9.51483398 0.07532227 9.51483398 0.0625 8.3125 C0.05798828 7.51521484 0.05347656 6.71792969 0.04882812 5.89648438 C0.0370585 3.93095743 0.01912348 1.96546915 0 0 Z " fill="#CADFFD" transform="translate(185,107)"/>
<path d="M0 0 C4.62 1.65 9.24 3.3 14 5 C14 5.99 14 6.98 14 8 C7.86230717 7.62422289 4.73036356 5.9580593 0 2 C0 1.34 0 0.68 0 0 Z " fill="#EBF1FD" transform="translate(24,134)"/>
<path d="M0 0 C1.4540625 0.0309375 1.4540625 0.0309375 2.9375 0.0625 C3.5975 1.3825 4.2575 2.7025 4.9375 4.0625 C2.9575 4.0625 0.9775 4.0625 -1.0625 4.0625 C-1.3925 5.0525 -1.7225 6.0425 -2.0625 7.0625 C-2.7225 5.0825 -3.3825 3.1025 -4.0625 1.0625 C-3.0625 0.0625 -3.0625 0.0625 0 0 Z " fill="#FBE7C5" transform="translate(16.0625,31.9375)"/>
<path d="M0 0 C0.99 0 1.98 0 3 0 C4.32 2.64 5.64 5.28 7 8 C6.34 8 5.68 8 5 8 C5 8.99 5 9.98 5 11 C4.34 11 3.68 11 3 11 C0.875 4.375 0.875 4.375 2 1 C1.34 0.67 0.68 0.34 0 0 Z " fill="#E7BECF" transform="translate(21,84)"/>
<path d="M0 0 C0.598125 0.226875 1.19625 0.45375 1.8125 0.6875 C1.8125 1.6775 1.8125 2.6675 1.8125 3.6875 C1.1525 3.6875 0.4925 3.6875 -0.1875 3.6875 C-0.5175 5.3375 -0.8475 6.9875 -1.1875 8.6875 C-1.8475 7.3675 -2.5075 6.0475 -3.1875 4.6875 C-4.1775 5.3475 -5.1675 6.0075 -6.1875 6.6875 C-5.78066505 4.32785727 -5.28935661 2.82815912 -3.875 0.875 C-2.1875 -0.3125 -2.1875 -0.3125 0 0 Z " fill="#F6DECA" transform="translate(41.1875,11.3125)"/>
<path d="M0 0 C0.33 0 0.66 0 1 0 C1.05391993 1.79133978 1.09275571 3.58313899 1.125 5.375 C1.14820313 6.37273437 1.17140625 7.37046875 1.1953125 8.3984375 C1 11 1 11 -1 13 C-2.5121867 9.97562661 -2.17263369 7.33758466 -2 4 C-1 1.5625 -1 1.5625 0 0 Z " fill="#FDE89B" transform="translate(23,68)"/>
<path d="M0 0 C0.33 1.32 0.66 2.64 1 4 C0.34 4 -0.32 4 -1 4 C-2.66489182 7.92438786 -3.87204037 11.89100419 -5 16 C-5.33 16 -5.66 16 -6 16 C-5.82774538 9.09415557 -4.41875491 5.32516617 0 0 Z " fill="#F7F8FD" transform="translate(121,152)"/>
<path d="M0 0 C0.33 0 0.66 0 1 0 C1.04898438 0.61488281 1.09796875 1.22976562 1.1484375 1.86328125 C1.22320312 2.67152344 1.29796875 3.47976562 1.375 4.3125 C1.44460937 5.11300781 1.51421875 5.91351563 1.5859375 6.73828125 C1.89564426 9.27224441 1.89564426 9.27224441 4 12 C2.35 11.67 0.7 11.34 -1 11 C-1.0270043 9.54176788 -1.04639787 8.08339325 -1.0625 6.625 C-1.07410156 5.81289062 -1.08570312 5.00078125 -1.09765625 4.1640625 C-1 2 -1 2 0 0 Z " fill="#B5BFF9" transform="translate(114,160)"/>
<path d="M0 0 C0.99 0.33 1.98 0.66 3 1 C1.73113036 2.12721436 0.45982438 3.25168658 -0.8125 4.375 C-1.52019531 5.00148438 -2.22789063 5.62796875 -2.95703125 6.2734375 C-5 8 -5 8 -8 10 C-6.56854369 4.98990293 -4.17048478 2.89380576 0 0 Z " fill="#F8DAD2" transform="translate(37,32)"/>
<path d="M0 0 C0.33 0 0.66 0 1 0 C1.35050464 5.841744 1.16727335 9.8531808 -2 15 C-3.60728272 10.9817932 -2.27930357 7.98005555 -1 4 C-0.65864073 2.66869885 -0.32074044 1.33641852 0 0 Z " fill="#BDD7FD" transform="translate(185,115)"/>
<path d="M0 0 C2.75 0.25 2.75 0.25 5 1 C5 1.99 5 2.98 5 4 C2.03 4 -0.94 4 -4 4 C-2.3125 1.9375 -2.3125 1.9375 0 0 Z " fill="#EDC9D5" transform="translate(102,23)"/>
<path d="M0 0 C1.21236328 0.01353516 1.21236328 0.01353516 2.44921875 0.02734375 C3.37154297 0.04474609 3.37154297 0.04474609 4.3125 0.0625 C4.3125 0.3925 4.3125 0.7225 4.3125 1.0625 C1.6725 1.3925 -0.9675 1.7225 -3.6875 2.0625 C-4.0175 3.3825 -4.3475 4.7025 -4.6875 6.0625 C-5.6775 5.7325 -6.6675 5.4025 -7.6875 5.0625 C-7.6875 3.7425 -7.6875 2.4225 -7.6875 1.0625 C-4.80538698 0.10179566 -2.98899956 -0.04331883 0 0 Z " fill="#FCE7C1" transform="translate(9.6875,61.9375)"/>
<path d="M0 0 C3 3 3 3 3.1875 6.6875 C3.125625 7.780625 3.06375 8.87375 3 10 C2.01 10.33 1.02 10.66 0 11 C0 7.37 0 3.74 0 0 Z " fill="#D7E5FD" transform="translate(129,158)"/>
<path d="M0 0 C0 3 0 3 -1.1875 4.6875 C-3.55741722 6.40364695 -5.14025666 6.23187108 -8 6 C-5.63379989 3.38472619 -3.057952 1.73559438 0 0 Z " fill="#FDAA62" transform="translate(48,87)"/>
<path d="M0 0 C0.99 0 1.98 0 3 0 C3.33 2.31 3.66 4.62 4 7 C3.7525 6.360625 3.505 5.72125 3.25 5.0625 C2.18437567 2.81258459 2.18437567 2.81258459 -0.125 2.25 C-1.053125 2.12625 -1.053125 2.12625 -2 2 C-1.34 1.34 -0.68 0.68 0 0 Z " fill="#E5C9DF" transform="translate(77,5)"/>
<path d="M0 0 C1.27875 -0.061875 2.5575 -0.12375 3.875 -0.1875 C4.95394531 -0.23970703 4.95394531 -0.23970703 6.0546875 -0.29296875 C6.69664063 -0.19628906 7.33859375 -0.09960938 8 0 C8.66 0.99 9.32 1.98 10 3 C6.7 2.34 3.4 1.68 0 1 C0 0.67 0 0.34 0 0 Z " fill="#FDD6BF" transform="translate(67,25)"/>
</svg>
